<svg xmlns="http://www.w3.org/2000/svg" xmlns:xlink="http://www.w3.org/1999/xlink" id="body_1" preserveAspectRatio="xMinYMin meet" viewBox="0 0 793 1123"><defs><clipPath id="1"><path id="" clip-rule="evenodd" transform="matrix(1 0 0 1 0 0)" d="M0 842L0 -0.03997803L0 -0.03997803L595.32 -0.03997803L595.32 -0.03997803L595.32 842L595.32 842L0 842z" /></clipPath><clipPath id="2"><path id="" clip-rule="evenodd" transform="matrix(1 0 0 1 0 0)" d="M80.184 48.56L225.164 48.56L225.164 48.56L225.164 35.96002L225.164 35.96002L80.184 35.96002z" /></clipPath><clipPath id="3"><path id="" clip-rule="evenodd" transform="matrix(1 0 0 1 0 0)" d="M80.184 48.56L225.164 48.56L225.164 48.56L225.164 35.96002L225.164 35.96002L80.184 35.96002z" /></clipPath><clipPath id="4"><path id="" clip-rule="evenodd" transform="matrix(1 0 0 1 0 0)" d="M225.17 48.56L340.27 48.56L340.27 48.56L340.27 35.96002L340.27 35.96002L225.17 35.96002z" /></clipPath><clipPath id="5"><path id="" clip-rule="evenodd" transform="matrix(1 0 0 1 0 0)" d="M225.17 48.56L340.27 48.56L340.27 48.56L340.27 35.96002L340.27 35.96002L225.17 35.96002z" /></clipPath><clipPath id="6"><path id="" clip-rule="evenodd" transform="matrix(1 0 0 1 0 0)" d="M340.27 48.56L515.28 48.56L515.28 48.56L515.28 35.96002L515.28 35.96002L340.27 35.96002z" /></clipPath><clipPath id="7"><path id="" clip-rule="evenodd" transform="matrix(1 0 0 1 0 0)" d="M340.27 48.56L515.28 48.56L515.28 48.56L515.28 35.96002L515.28 35.96002L340.27 35.96002z" /></clipPath><clipPath id="8"><path id="" clip-rule="evenodd" transform="matrix(1 0 0 1 0 0)" d="M8.871E-06 842L595.32 842L595.32 842L595.32 -0.03997803L595.32 -0.03997803L8.871E-06 -0.03997803z" /></clipPath><clipPath id="9"><path id="" clip-rule="evenodd" transform="matrix(1 0 0 1 0 0)" d="M8.871E-06 842L595.32 842L595.32 842L595.32 -0.03997803L595.32 -0.03997803L8.871E-06 -0.03997803z" /></clipPath><clipPath id="10"><path id="" clip-rule="evenodd" transform="matrix(1 0 0 1 0 0)" d="M8.871E-06 842L595.32 842L595.32 842L595.32 -0.03997803L595.32 -0.03997803L8.871E-06 -0.03997803z" /></clipPath><clipPath id="11"><path id="" clip-rule="evenodd" transform="matrix(1 0 0 1 0 0)" d="M8.871E-06 842L595.32 842L595.32 842L595.32 -0.03997803L595.32 -0.03997803L8.871E-06 -0.03997803z" /></clipPath><clipPath id="12"><path id="" clip-rule="evenodd" transform="matrix(1 0 0 1 0 0)" d="M8.871E-06 842L595.32 842L595.32 842L595.32 -0.03997803L595.32 -0.03997803L8.871E-06 -0.03997803z" /></clipPath><clipPath id="13"><path id="" clip-rule="evenodd" transform="matrix(1 0 0 1 0 0)" d="M8.871E-06 842L595.32 842L595.32 842L595.32 -0.03997803L595.32 -0.03997803L8.871E-06 -0.03997803z" /></clipPath><clipPath id="14"><path id="" clip-rule="evenodd" transform="matrix(1 0 0 1 0 0)" d="M8.871E-06 842L595.32 842L595.32 842L595.32 -0.03997803L595.32 -0.03997803L8.871E-06 -0.03997803z" /></clipPath><clipPath id="15"><path id="" clip-rule="evenodd" transform="matrix(1 0 0 1 0 0)" d="M8.871E-06 842L595.32 842L595.32 842L595.32 -0.03997803L595.32 -0.03997803L8.871E-06 -0.03997803z" /></clipPath><clipPath id="16"><path id="" clip-rule="evenodd" transform="matrix(1 0 0 1 0 0)" d="M8.871E-06 842L595.32 842L595.32 842L595.32 -0.03997803L595.32 -0.03997803L8.871E-06 -0.03997803z" /></clipPath><clipPath id="17"><path id="" clip-rule="evenodd" transform="matrix(1 0 0 1 0 0)" d="M8.871E-06 842L595.32 842L595.32 842L595.32 -0.03997803L595.32 -0.03997803L8.871E-06 -0.03997803z" /></clipPath><clipPath id="18"><path id="" clip-rule="evenodd" transform="matrix(1 0 0 1 0 0)" d="M8.871E-06 842L595.32 842L595.32 842L595.32 -0.03997803L595.32 -0.03997803L8.871E-06 -0.03997803z" /></clipPath><clipPath id="19"><path id="" clip-rule="evenodd" transform="matrix(1 0 0 1 0 0)" d="M8.871E-06 842L595.32 842L595.32 842L595.32 -0.03997803L595.32 -0.03997803L8.871E-06 -0.03997803z" /></clipPath><clipPath id="20"><path id="" clip-rule="evenodd" transform="matrix(1 0 0 1 0 0)" d="M8.871E-06 842L595.32 842L595.32 842L595.32 -0.03997803L595.32 -0.03997803L8.871E-06 -0.03997803z" /></clipPath><clipPath id="21"><path id="" clip-rule="evenodd" transform="matrix(1 0 0 1 0 0)" d="M80.064 106.54L515.404 106.54L515.404 106.54L515.404 73.51599L515.404 73.51599L80.064 73.51599z" /></clipPath><clipPath id="22"><path id="" clip-rule="evenodd" transform="matrix(1 0 0 1 0 0)" d="M80.064 106.54L515.404 106.54L515.404 106.54L515.404 73.51599L515.404 73.51599L80.064 73.51599z" /></clipPath><clipPath id="23"><path id="" clip-rule="evenodd" transform="matrix(1 0 0 1 0 0)" d="M80.064 106.54L515.404 106.54L515.404 106.54L515.404 73.51599L515.404 73.51599L80.064 73.51599z" /></clipPath><clipPath id="24"><path id="" clip-rule="evenodd" transform="matrix(1 0 0 1 0 0)" d="M80.064 106.54L515.404 106.54L515.404 106.54L515.404 73.51599L515.404 73.51599L80.064 73.51599z" /></clipPath><clipPath id="25"><path id="" clip-rule="evenodd" transform="matrix(1 0 0 1 0 0)" d="M80.064 106.54L515.404 106.54L515.404 106.54L515.404 73.51599L515.404 73.51599L80.064 73.51599z" /></clipPath><clipPath id="26"><path id="" clip-rule="evenodd" transform="matrix(1 0 0 1 0 0)" d="M80.064 106.54L515.404 106.54L515.404 106.54L515.404 73.51599L515.404 73.51599L80.064 73.51599z" /></clipPath><clipPath id="27"><path id="" clip-rule="evenodd" transform="matrix(1 0 0 1 0 0)" d="M80.064 106.54L515.404 106.54L515.404 106.54L515.404 73.51599L515.404 73.51599L80.064 73.51599z" /></clipPath><clipPath id="28"><path id="" clip-rule="evenodd" transform="matrix(1 0 0 1 0 0)" d="M80.064 106.54L515.404 106.54L515.404 106.54L515.404 73.51599L515.404 73.51599L80.064 73.51599z" /></clipPath><clipPath id="29"><path id="" clip-rule="evenodd" transform="matrix(1 0 0 1 0 0)" d="M79.344 122.02L297.674 122.02L297.674 122.02L297.674 108.1L297.674 108.1L79.344 108.1z" /></clipPath><clipPath id="30"><path id="" clip-rule="evenodd" transform="matrix(1 0 0 1 0 0)" d="M79.344 122.02L297.674 122.02L297.674 122.02L297.674 108.1L297.674 108.1L79.344 108.1z" /></clipPath><clipPath id="31"><path id="" clip-rule="evenodd" transform="matrix(1 0 0 1 0 0)" d="M297.67 122.02L516.12 122.02L516.12 122.02L516.12 108.1L516.12 108.1L297.67 108.1z" /></clipPath><clipPath id="32"><path id="" clip-rule="evenodd" transform="matrix(1 0 0 1 0 0)" d="M297.67 122.02L516.12 122.02L516.12 122.02L516.12 108.1L516.12 108.1L297.67 108.1z" /></clipPath><clipPath id="33"><path id="" clip-rule="evenodd" transform="matrix(1 0 0 1 0 0)" d="M79.344 150.82L297.674 150.82L297.674 150.82L297.674 122.02L297.674 122.02L79.344 122.02z" /></clipPath><clipPath id="34"><path id="" clip-rule="evenodd" transform="matrix(1 0 0 1 0 0)" d="M79.344 150.82L297.674 150.82L297.674 150.82L297.674 122.02L297.674 122.02L79.344 122.02z" /></clipPath><clipPath id="35"><path id="" clip-rule="evenodd" transform="matrix(1 0 0 1 0 0)" d="M297.67 150.82L516.12 150.82L516.12 150.82L516.12 122.02L516.12 122.02L297.67 122.02z" /></clipPath><clipPath id="36"><path id="" clip-rule="evenodd" transform="matrix(1 0 0 1 0 0)" d="M297.67 150.82L516.12 150.82L516.12 150.82L516.12 122.02L516.12 122.02L297.67 122.02z" /></clipPath><clipPath id="37"><path id="" clip-rule="evenodd" transform="matrix(1 0 0 1 0 0)" d="M79.344 193.3L516.124 193.3L516.124 193.3L516.124 150.82L516.124 150.82L79.344 150.82z" /></clipPath><clipPath id="38"><path id="" clip-rule="evenodd" transform="matrix(1 0 0 1 0 0)" d="M79.344 193.3L516.124 193.3L516.124 193.3L516.124 150.82L516.124 150.82L79.344 150.82z" /></clipPath><clipPath id="39"><path id="" clip-rule="evenodd" transform="matrix(1 0 0 1 0 0)" d="M79.344 193.3L516.124 193.3L516.124 193.3L516.124 150.82L516.124 150.82L79.344 150.82z" /></clipPath><clipPath id="40"><path id="" clip-rule="evenodd" transform="matrix(1 0 0 1 0 0)" d="M79.344 193.3L516.124 193.3L516.124 193.3L516.124 150.82L516.124 150.82L79.344 150.82z" /></clipPath><clipPath id="41"><path id="" clip-rule="evenodd" transform="matrix(1 0 0 1 0 0)" d="M0 842L595.32 842L595.32 842L595.32 -0.03997803L595.32 -0.03997803L0 -0.03997803z" /></clipPath><clipPath id="42"><path id="" clip-rule="evenodd" transform="matrix(1 0 0 1 0 0)" d="M79.344 294.01L516.124 294.01L516.124 294.01L516.124 193.31L516.124 193.31L79.344 193.31z" /></clipPath><clipPath id="43"><path id="" clip-rule="evenodd" transform="matrix(1 0 0 1 0 0)" d="M79.344 593.22L516.124 593.22L516.124 593.22L516.124 294.01L516.124 294.01L79.344 294.01z" /></clipPath><clipPath id="44"><path id="" clip-rule="evenodd" transform="matrix(1 0 0 1 0 0)" d="M79.344 593.22L516.124 593.22L516.124 593.22L516.124 294.01L516.124 294.01L79.344 294.01z" /></clipPath><clipPath id="45"><path id="" clip-rule="evenodd" transform="matrix(1 0 0 1 0 0)" d="M79.344 593.22L516.124 593.22L516.124 593.22L516.124 294.01L516.124 294.01L79.344 294.01z" /></clipPath><clipPath id="46"><path id="" clip-rule="evenodd" transform="matrix(1 0 0 1 0 0)" d="M79.344 593.22L516.124 593.22L516.124 593.22L516.124 294.01L516.124 294.01L79.344 294.01z" /></clipPath><clipPath id="47"><path id="" clip-rule="evenodd" transform="matrix(1 0 0 1 0 0)" d="M79.344 593.22L516.124 593.22L516.124 593.22L516.124 294.01L516.124 294.01L79.344 294.01z" /></clipPath><clipPath id="48"><path id="" clip-rule="evenodd" transform="matrix(1 0 0 1 0 0)" d="M79.344 593.22L516.124 593.22L516.124 593.22L516.124 294.01L516.124 294.01L79.344 294.01z" /></clipPath><clipPath id="49"><path id="" clip-rule="evenodd" transform="matrix(1 0 0 1 0 0)" d="M79.344 593.22L516.124 593.22L516.124 593.22L516.124 294.01L516.124 294.01L79.344 294.01z" /></clipPath><clipPath id="50"><path id="" clip-rule="evenodd" transform="matrix(1 0 0 1 0 0)" d="M79.344 593.22L516.124 593.22L516.124 593.22L516.124 294.01L516.124 294.01L79.344 294.01z" /></clipPath><clipPath id="51"><path id="" clip-rule="evenodd" transform="matrix(1 0 0 1 0 0)" d="M79.344 593.22L516.124 593.22L516.124 593.22L516.124 294.01L516.124 294.01L79.344 294.01z" /></clipPath><clipPath id="52"><path id="" clip-rule="evenodd" transform="matrix(1 0 0 1 0 0)" d="M79.344 593.22L516.124 593.22L516.124 593.22L516.124 294.01L516.124 294.01L79.344 294.01z" /></clipPath><clipPath id="53"><path id="" clip-rule="evenodd" transform="matrix(1 0 0 1 0 0)" d="M79.344 593.22L516.124 593.22L516.124 593.22L516.124 294.01L516.124 294.01L79.344 294.01z" /></clipPath><clipPath id="54"><path id="" clip-rule="evenodd" transform="matrix(1 0 0 1 0 0)" d="M79.344 593.22L516.124 593.22L516.124 593.22L516.124 294.01L516.124 294.01L79.344 294.01z" /></clipPath><clipPath id="55"><path id="" clip-rule="evenodd" transform="matrix(1 0 0 1 0 0)" d="M79.344 593.22L516.124 593.22L516.124 593.22L516.124 294.01L516.124 294.01L79.344 294.01z" /></clipPath><clipPath id="56"><path id="" clip-rule="evenodd" transform="matrix(1 0 0 1 0 0)" d="M79.344 593.22L516.124 593.22L516.124 593.22L516.124 294.01L516.124 294.01L79.344 294.01z" /></clipPath><clipPath id="57"><path id="" clip-rule="evenodd" transform="matrix(1 0 0 1 0 0)" d="M79.344 593.22L516.124 593.22L516.124 593.22L516.124 294.01L516.124 294.01L79.344 294.01z" /></clipPath><clipPath id="58"><path id="" clip-rule="evenodd" transform="matrix(1 0 0 1 0 0)" d="M79.344 593.22L516.124 593.22L516.124 593.22L516.124 294.01L516.124 294.01L79.344 294.01z" /></clipPath><clipPath id="59"><path id="" clip-rule="evenodd" transform="matrix(1 0 0 1 0 0)" d="M79.344 593.22L516.124 593.22L516.124 593.22L516.124 294.01L516.124 294.01L79.344 294.01z" /></clipPath><clipPath id="60"><path id="" clip-rule="evenodd" transform="matrix(1 0 0 1 0 0)" d="M79.344 593.22L516.124 593.22L516.124 593.22L516.124 294.01L516.124 294.01L79.344 294.01z" /></clipPath><clipPath id="61"><path id="" clip-rule="evenodd" transform="matrix(1 0 0 1 0 0)" d="M79.344 593.22L516.124 593.22L516.124 593.22L516.124 294.01L516.124 294.01L79.344 294.01z" /></clipPath><clipPath id="62"><path id="" clip-rule="evenodd" transform="matrix(1 0 0 1 0 0)" d="M79.344 593.22L516.124 593.22L516.124 593.22L516.124 294.01L516.124 294.01L79.344 294.01z" /></clipPath><clipPath id="63"><path id="" clip-rule="evenodd" transform="matrix(1 0 0 1 0 0)" d="M79.344 593.22L516.124 593.22L516.124 593.22L516.124 294.01L516.124 294.01L79.344 294.01z" /></clipPath><clipPath id="64"><path id="" clip-rule="evenodd" transform="matrix(1 0 0 1 0 0)" d="M79.344 593.22L516.124 593.22L516.124 593.22L516.124 294.01L516.124 294.01L79.344 294.01z" /></clipPath><clipPath id="65"><path id="" clip-rule="evenodd" transform="matrix(1 0 0 1 0 0)" d="M79.344 593.22L516.124 593.22L516.124 593.22L516.124 294.01L516.124 294.01L79.344 294.01z" /></clipPath><clipPath id="66"><path id="" clip-rule="evenodd" transform="matrix(1 0 0 1 0 0)" d="M79.344 593.22L516.124 593.22L516.124 593.22L516.124 294.01L516.124 294.01L79.344 294.01z" /></clipPath><clipPath id="67"><path id="" clip-rule="evenodd" transform="matrix(1 0 0 1 0 0)" d="M79.344 593.22L516.124 593.22L516.124 593.22L516.124 294.01L516.124 294.01L79.344 294.01z" /></clipPath><clipPath id="68"><path id="" clip-rule="evenodd" transform="matrix(1 0 0 1 0 0)" d="M79.344 593.22L516.124 593.22L516.124 593.22L516.124 294.01L516.124 294.01L79.344 294.01z" /></clipPath><clipPath id="69"><path id="" clip-rule="evenodd" transform="matrix(1 0 0 1 0 0)" d="M79.344 593.22L516.124 593.22L516.124 593.22L516.124 294.01L516.124 294.01L79.344 294.01z" /></clipPath><clipPath id="70"><path id="" clip-rule="evenodd" transform="matrix(1 0 0 1 0 0)" d="M79.344 593.22L516.124 593.22L516.124 593.22L516.124 294.01L516.124 294.01L79.344 294.01z" /></clipPath><clipPath id="71"><path id="" clip-rule="evenodd" transform="matrix(1 0 0 1 0 0)" d="M79.344 593.22L516.124 593.22L516.124 593.22L516.124 294.01L516.124 294.01L79.344 294.01z" /></clipPath><clipPath id="72"><path id="" clip-rule="evenodd" transform="matrix(1 0 0 1 0 0)" d="M79.344 593.22L516.124 593.22L516.124 593.22L516.124 294.01L516.124 294.01L79.344 294.01z" /></clipPath><clipPath id="73"><path id="" clip-rule="evenodd" transform="matrix(1 0 0 1 0 0)" d="M79.344 593.22L516.124 593.22L516.124 593.22L516.124 294.01L516.124 294.01L79.344 294.01z" /></clipPath><clipPath id="74"><path id="" clip-rule="evenodd" transform="matrix(1 0 0 1 0 0)" d="M79.344 593.22L516.124 593.22L516.124 593.22L516.124 294.01L516.124 294.01L79.344 294.01z" /></clipPath><clipPath id="75"><path id="" clip-rule="evenodd" transform="matrix(1 0 0 1 0 0)" d="M79.344 593.22L516.124 593.22L516.124 593.22L516.124 294.01L516.124 294.01L79.344 294.01z" /></clipPath><clipPath id="76"><path id="" clip-rule="evenodd" transform="matrix(1 0 0 1 0 0)" d="M79.344 593.22L516.124 593.22L516.124 593.22L516.124 294.01L516.124 294.01L79.344 294.01z" /></clipPath><clipPath id="77"><path id="" clip-rule="evenodd" transform="matrix(1 0 0 1 0 0)" d="M79.344 593.22L516.124 593.22L516.124 593.22L516.124 294.01L516.124 294.01L79.344 294.01z" /></clipPath><clipPath id="78"><path id="" clip-rule="evenodd" transform="matrix(1 0 0 1 0 0)" d="M79.344 593.22L516.124 593.22L516.124 593.22L516.124 294.01L516.124 294.01L79.344 294.01z" /></clipPath><clipPath id="79"><path id="" clip-rule="evenodd" transform="matrix(1 0 0 1 0 0)" d="M79.344 593.22L516.124 593.22L516.124 593.22L516.124 294.01L516.124 294.01L79.344 294.01z" /></clipPath><clipPath id="80"><path id="" clip-rule="evenodd" transform="matrix(1 0 0 1 0 0)" d="M79.344 593.22L516.124 593.22L516.124 593.22L516.124 294.01L516.124 294.01L79.344 294.01z" /></clipPath><clipPath id="81"><path id="" clip-rule="evenodd" transform="matrix(1 0 0 1 0 0)" d="M79.344 593.22L516.124 593.22L516.124 593.22L516.124 294.01L516.124 294.01L79.344 294.01z" /></clipPath><clipPath id="82"><path id="" clip-rule="evenodd" transform="matrix(1 0 0 1 0 0)" d="M79.344 593.22L516.124 593.22L516.124 593.22L516.124 294.01L516.124 294.01L79.344 294.01z" /></clipPath><clipPath id="83"><path id="" clip-rule="evenodd" transform="matrix(1 0 0 1 0 0)" d="M79.344 593.22L516.124 593.22L516.124 593.22L516.124 294.01L516.124 294.01L79.344 294.01z" /></clipPath><clipPath id="84"><path id="" clip-rule="evenodd" transform="matrix(1 0 0 1 0 0)" d="M79.344 593.22L516.124 593.22L516.124 593.22L516.124 294.01L516.124 294.01L79.344 294.01z" /></clipPath><clipPath id="85"><path id="" clip-rule="evenodd" transform="matrix(1 0 0 1 0 0)" d="M79.344 593.22L516.124 593.22L516.124 593.22L516.124 294.01L516.124 294.01L79.344 294.01z" /></clipPath><clipPath id="86"><path id="" clip-rule="evenodd" transform="matrix(1 0 0 1 0 0)" d="M79.344 593.22L516.124 593.22L516.124 593.22L516.124 294.01L516.124 294.01L79.344 294.01z" /></clipPath><clipPath id="87"><path id="" clip-rule="evenodd" transform="matrix(1 0 0 1 0 0)" d="M79.344 593.22L516.124 593.22L516.124 593.22L516.124 294.01L516.124 294.01L79.344 294.01z" /></clipPath><clipPath id="88"><path id="" clip-rule="evenodd" transform="matrix(1 0 0 1 0 0)" d="M79.344 593.22L516.124 593.22L516.124 593.22L516.124 294.01L516.124 294.01L79.344 294.01z" /></clipPath><clipPath id="89"><path id="" clip-rule="evenodd" transform="matrix(1 0 0 1 0 0)" d="M79.344 593.22L516.124 593.22L516.124 593.22L516.124 294.01L516.124 294.01L79.344 294.01z" /></clipPath><clipPath id="90"><path id="" clip-rule="evenodd" transform="matrix(1 0 0 1 0 0)" d="M79.344 593.22L516.124 593.22L516.124 593.22L516.124 294.01L516.124 294.01L79.344 294.01z" /></clipPath><clipPath id="91"><path id="" clip-rule="evenodd" transform="matrix(1 0 0 1 0 0)" d="M79.344 593.22L516.124 593.22L516.124 593.22L516.124 294.01L516.124 294.01L79.344 294.01z" /></clipPath><clipPath id="92"><path id="" clip-rule="evenodd" transform="matrix(1 0 0 1 0 0)" d="M79.344 593.22L516.124 593.22L516.124 593.22L516.124 294.01L516.124 294.01L79.344 294.01z" /></clipPath><clipPath id="93"><path id="" clip-rule="evenodd" transform="matrix(1 0 0 1 0 0)" d="M79.344 593.22L516.124 593.22L516.124 593.22L516.124 294.01L516.124 294.01L79.344 294.01z" /></clipPath><clipPath id="94"><path id="" clip-rule="evenodd" transform="matrix(1 0 0 1 0 0)" d="M79.344 593.22L516.124 593.22L516.124 593.22L516.124 294.01L516.124 294.01L79.344 294.01z" /></clipPath><clipPath id="95"><path id="" clip-rule="evenodd" transform="matrix(1 0 0 1 0 0)" d="M79.344 593.22L516.124 593.22L516.124 593.22L516.124 294.01L516.124 294.01L79.344 294.01z" /></clipPath><clipPath id="96"><path id="" clip-rule="evenodd" transform="matrix(1 0 0 1 0 0)" d="M79.344 593.22L516.124 593.22L516.124 593.22L516.124 294.01L516.124 294.01L79.344 294.01z" /></clipPath><clipPath id="97"><path id="" clip-rule="evenodd" transform="matrix(1 0 0 1 0 0)" d="M79.344 593.22L516.124 593.22L516.124 593.22L516.124 294.01L516.124 294.01L79.344 294.01z" /></clipPath><clipPath id="98"><path id="" clip-rule="evenodd" transform="matrix(1 0 0 1 0 0)" d="M79.344 593.22L516.124 593.22L516.124 593.22L516.124 294.01L516.124 294.01L79.344 294.01z" /></clipPath><clipPath id="99"><path id="" clip-rule="evenodd" transform="matrix(1 0 0 1 0 0)" d="M79.344 593.22L516.124 593.22L516.124 593.22L516.124 294.01L516.124 294.01L79.344 294.01z" /></clipPath><clipPath id="100"><path id="" clip-rule="evenodd" transform="matrix(1 0 0 1 0 0)" d="M79.344 593.22L516.124 593.22L516.124 593.22L516.124 294.01L516.124 294.01L79.344 294.01z" /></clipPath><clipPath id="101"><path id="" clip-rule="evenodd" transform="matrix(1 0 0 1 0 0)" d="M79.344 593.22L516.124 593.22L516.124 593.22L516.124 294.01L516.124 294.01L79.344 294.01z" /></clipPath><clipPath id="102"><path id="" clip-rule="evenodd" transform="matrix(1 0 0 1 0 0)" d="M79.344 593.22L516.124 593.22L516.124 593.22L516.124 294.01L516.124 294.01L79.344 294.01z" /></clipPath><clipPath id="103"><path id="" clip-rule="evenodd" transform="matrix(1 0 0 1 0 0)" d="M79.344 593.22L516.124 593.22L516.124 593.22L516.124 294.01L516.124 294.01L79.344 294.01z" /></clipPath><clipPath id="104"><path id="" clip-rule="evenodd" transform="matrix(1 0 0 1 0 0)" d="M79.344 593.22L516.124 593.22L516.124 593.22L516.124 294.01L516.124 294.01L79.344 294.01z" /></clipPath><clipPath id="105"><path id="" clip-rule="evenodd" transform="matrix(1 0 0 1 0 0)" d="M79.344 593.22L516.124 593.22L516.124 593.22L516.124 294.01L516.124 294.01L79.344 294.01z" /></clipPath><clipPath id="106"><path id="" clip-rule="evenodd" transform="matrix(1 0 0 1 0 0)" d="M79.344 593.22L516.124 593.22L516.124 593.22L516.124 294.01L516.124 294.01L79.344 294.01z" /></clipPath><clipPath id="107"><path id="" clip-rule="evenodd" transform="matrix(1 0 0 1 0 0)" d="M79.344 644.22L141.504 644.22L141.504 644.22L141.504 593.22L141.504 593.22L79.344 593.22z" /></clipPath><clipPath id="108"><path id="" clip-rule="evenodd" transform="matrix(1 0 0 1 0 0)" d="M79.344 644.22L141.504 644.22L141.504 644.22L141.504 593.22L141.504 593.22L79.344 593.22z" /></clipPath><clipPath id="109"><path id="" clip-rule="evenodd" transform="matrix(1 0 0 1 0 0)" d="M141.5 644.22L453.93 644.22L453.93 644.22L453.93 593.22L453.93 593.22L141.5 593.22z" /></clipPath><clipPath id="110"><path id="" clip-rule="evenodd" transform="matrix(1 0 0 1 0 0)" d="M141.5 644.22L453.93 644.22L453.93 644.22L453.93 593.22L453.93 593.22L141.5 593.22z" /></clipPath><clipPath id="111"><path id="" clip-rule="evenodd" transform="matrix(1 0 0 1 0 0)" d="M141.5 644.22L453.93 644.22L453.93 644.22L453.93 593.22L453.93 593.22L141.5 593.22z" /></clipPath><clipPath id="112"><path id="" clip-rule="evenodd" transform="matrix(1 0 0 1 0 0)" d="M141.5 644.22L453.93 644.22L453.93 644.22L453.93 593.22L453.93 593.22L141.5 593.22z" /></clipPath><clipPath id="113"><path id="" clip-rule="evenodd" transform="matrix(1 0 0 1 0 0)" d="M141.5 644.22L453.93 644.22L453.93 644.22L453.93 593.22L453.93 593.22L141.5 593.22z" /></clipPath><clipPath id="114"><path id="" clip-rule="evenodd" transform="matrix(1 0 0 1 0 0)" d="M453.94 644.22L516.124 644.22L516.124 644.22L516.124 593.22L516.124 593.22L453.94 593.22z" /></clipPath><clipPath id="115"><path id="" clip-rule="evenodd" transform="matrix(1 0 0 1 0 0)" d="M453.94 644.22L516.124 644.22L516.124 644.22L516.124 593.22L516.124 593.22L453.94 593.22z" /></clipPath><clipPath id="116"><path id="" clip-rule="evenodd" transform="matrix(1 0 0 1 0 0)" d="M8.871E-06 842L595.32 842L595.32 842L595.32 -0.03997803L595.32 -0.03997803L8.871E-06 -0.03997803z" /></clipPath><clipPath id="117"><path id="" clip-rule="evenodd" transform="matrix(1 0 0 1 0 0)" d="M80.424 751.496L515.044 751.496L515.044 751.496L515.044 661.616L515.044 661.616L80.424 661.616z" /></clipPath><clipPath id="118"><path id="" clip-rule="evenodd" transform="matrix(1 0 0 1 0 0)" d="M80.424 751.496L515.044 751.496L515.044 751.496L515.044 661.616L515.044 661.616L80.424 661.616z" /></clipPath><clipPath id="119"><path id="" clip-rule="evenodd" transform="matrix(1 0 0 1 0 0)" d="M80.424 751.496L515.044 751.496L515.044 751.496L515.044 661.616L515.044 661.616L80.424 661.616z" /></clipPath><clipPath id="120"><path id="" clip-rule="evenodd" transform="matrix(1 0 0 1 0 0)" d="M80.424 751.496L515.044 751.496L515.044 751.496L515.044 661.616L515.044 661.616L80.424 661.616z" /></clipPath><clipPath id="121"><path id="" clip-rule="evenodd" transform="matrix(1 0 0 1 0 0)" d="M80.424 751.496L515.044 751.496L515.044 751.496L515.044 661.616L515.044 661.616L80.424 661.616z" /></clipPath><clipPath id="122"><path id="" clip-rule="evenodd" transform="matrix(1 0 0 1 0 0)" d="M80.424 751.496L515.044 751.496L515.044 751.496L515.044 661.616L515.044 661.616L80.424 661.616z" /></clipPath><clipPath id="123"><path id="" clip-rule="evenodd" transform="matrix(1 0 0 1 0 0)" d="M80.424 751.496L515.044 751.496L515.044 751.496L515.044 661.616L515.044 661.616L80.424 661.616z" /></clipPath><clipPath id="124"><path id="" clip-rule="evenodd" transform="matrix(1 0 0 1 0 0)" d="M80.424 751.496L515.044 751.496L515.044 751.496L515.044 661.616L515.044 661.616L80.424 661.616z" /></clipPath><clipPath id="125"><path id="" clip-rule="evenodd" transform="matrix(1 0 0 1 0 0)" d="M80.424 751.496L515.044 751.496L515.044 751.496L515.044 661.616L515.044 661.616L80.424 661.616z" /></clipPath><clipPath id="126"><path id="" clip-rule="evenodd" transform="matrix(1 0 0 1 0 0)" d="M80.424 751.496L515.044 751.496L515.044 751.496L515.044 661.616L515.044 661.616L80.424 661.616z" /></clipPath><clipPath id="127"><path id="" clip-rule="evenodd" transform="matrix(1 0 0 1 0 0)" d="M80.424 751.496L515.044 751.496L515.044 751.496L515.044 661.616L515.044 661.616L80.424 661.616z" /></clipPath><clipPath id="128"><path id="" clip-rule="evenodd" transform="matrix(1 0 0 1 0 0)" d="M80.424 751.496L515.044 751.496L515.044 751.496L515.044 661.616L515.044 661.616L80.424 661.616z" /></clipPath><clipPath id="129"><path id="" clip-rule="evenodd" transform="matrix(1 0 0 1 0 0)" d="M80.424 751.496L515.044 751.496L515.044 751.496L515.044 661.616L515.044 661.616L80.424 661.616z" /></clipPath><clipPath id="130"><path id="" clip-rule="evenodd" transform="matrix(1 0 0 1 0 0)" d="M80.424 751.496L515.044 751.496L515.044 751.496L515.044 661.616L515.044 661.616L80.424 661.616z" /></clipPath><clipPath id="131"><path id="" clip-rule="evenodd" transform="matrix(1 0 0 1 0 0)" d="M80.424 751.496L515.044 751.496L515.044 751.496L515.044 661.616L515.044 661.616L80.424 661.616z" /></clipPath></defs><g transform="matrix(1.333333 0 0 1.333333 0 0)"><g clip-path="url(#1)"><g clip-path="url(#2)"><g clip-path="url(#3)"></g></g><g clip-path="url(#4)"><g clip-path="url(#5)"></g></g><g clip-path="url(#6)"><g clip-path="url(#7)"></g></g><g clip-path="url(#8)"></g><g clip-path="url(#9)"></g><g clip-path="url(#10)"></g><g clip-path="url(#11)"></g><g clip-path="url(#12)"></g><g clip-path="url(#13)"></g><g clip-path="url(#14)"></g><g clip-path="url(#15)"></g><g clip-path="url(#16)"></g><g clip-path="url(#17)"></g><g clip-path="url(#18)"></g><g clip-path="url(#19)"></g><g clip-path="url(#20)"></g><g clip-path="url(#21)"><g clip-path="url(#22)"></g><g clip-path="url(#23)"></g><g clip-path="url(#24)"></g><g clip-path="url(#25)"></g><g clip-path="url(#26)"></g><g clip-path="url(#27)"></g><g clip-path="url(#28)"></g></g><path id="282" transform="matrix(1 0 0 -1 0 842)" d="M78.624 768.48L79.104 768.48L79.104 768.48L79.104 770.04L79.104 770.04L78.624 770.04z" stroke="none" fill="#000000" fill-rule="evenodd" /><path id="283" transform="matrix(1 0 0 -1 0 842)" d="M78.624 769.56L80.064 769.56L80.064 769.56L80.064 770.04L80.064 770.04L78.624 770.04z" stroke="none" fill="#000000" fill-rule="evenodd" /><path id="284" transform="matrix(1 0 0 -1 0 842)" d="M79.584 768.48L80.064 768.48L80.064 768.48L80.064 769.08L80.064 769.08L79.584 769.08z" stroke="none" fill="#000000" fill-rule="evenodd" /><path id="285" transform="matrix(1 0 0 -1 0 842)" d="M79.584 768.6L80.064 768.6L80.064 768.6L80.064 769.08L80.064 769.08L79.584 769.08z" stroke="none" fill="#000000" fill-rule="evenodd" /><path id="286" transform="matrix(1 0 0 -1 0 842)" d="M80.064 769.56L515.524 769.56L515.524 769.56L515.524 770.04L515.524 770.04L80.064 770.04z" stroke="none" fill="#000000" fill-rule="evenodd" /><path id="287" transform="matrix(1 0 0 -1 0 842)" d="M80.064 768.6L515.524 768.6L515.524 768.6L515.524 769.08L515.524 769.08L80.064 769.08z" stroke="none" fill="#000000" fill-rule="evenodd" /><path id="288" transform="matrix(1 0 0 -1 0 842)" d="M516.48 768.48L516.96 768.48L516.96 768.48L516.96 770.04L516.96 770.04L516.48 770.04z" stroke="none" fill="#000000" fill-rule="evenodd" /><path id="289" transform="matrix(1 0 0 -1 0 842)" d="M515.52 769.56L516.96 769.56L516.96 769.56L516.96 770.04L516.96 770.04L515.52 770.04z" stroke="none" fill="#000000" fill-rule="evenodd" /><path id="290" transform="matrix(1 0 0 -1 0 842)" d="M515.52 768.48L516 768.48L516 768.48L516 769.08L516 769.08L515.52 769.08z" stroke="none" fill="#000000" fill-rule="evenodd" /><path id="291" transform="matrix(1 0 0 -1 0 842)" d="M515.52 768.6L516 768.6L516 768.6L516 769.08L516 769.08L515.52 769.08z" stroke="none" fill="#000000" fill-rule="evenodd" /><path id="292" transform="matrix(1 0 0 -1 0 842)" d="M79.584 735.46L80.064 735.46L80.064 735.46L80.064 768.484L80.064 768.484L79.584 768.484z" stroke="none" fill="#000000" fill-rule="evenodd" /><path id="293" transform="matrix(1 0 0 -1 0 842)" d="M78.624 735.46L79.104 735.46L79.104 735.46L79.104 768.484L79.104 768.484L78.624 768.484z" stroke="none" fill="#000000" fill-rule="evenodd" /><path id="294" transform="matrix(1 0 0 -1 0 842)" d="M516.48 735.46L516.96 735.46L516.96 735.46L516.96 768.484L516.96 768.484L516.48 768.484z" stroke="none" fill="#000000" fill-rule="evenodd" /><path id="295" transform="matrix(1 0 0 -1 0 842)" d="M515.52 735.46L516 735.46L516 735.46L516 768.484L516 768.484L515.52 768.484z" stroke="none" fill="#000000" fill-rule="evenodd" /><g clip-path="url(#29)"><g clip-path="url(#30)"></g></g><g clip-path="url(#31)"><g clip-path="url(#32)"></g></g><path id="296" transform="matrix(1 0 0 -1 0 842)" d="M78.624 734.02L79.104 734.02L79.104 734.02L79.104 735.46L79.104 735.46L78.624 735.46z" stroke="none" fill="#000000" fill-rule="evenodd" /><path id="297" transform="matrix(1 0 0 -1 0 842)" d="M78.624 734.02L80.064 734.02L80.064 734.02L80.064 734.5L80.064 734.5L78.624 734.5z" stroke="none" fill="#000000" fill-rule="evenodd" /><path id="298" transform="matrix(1 0 0 -1 0 842)" d="M79.584 734.98L80.064 734.98L80.064 734.98L80.064 735.46L80.064 735.46L79.584 735.46z" stroke="none" fill="#000000" fill-rule="evenodd" /><path id="299" transform="matrix(1 0 0 -1 0 842)" d="M79.584 734.98L80.064 734.98L80.064 734.98L80.064 735.46L80.064 735.46L79.584 735.46z" stroke="none" fill="#000000" fill-rule="evenodd" /><path id="300" transform="matrix(1 0 0 -1 0 842)" d="M80.064 734.98L81.50401 734.98L81.50401 734.98L81.50401 735.46L81.50401 735.46L80.064 735.46z" stroke="none" fill="#000000" fill-rule="evenodd" /><path id="301" transform="matrix(1 0 0 -1 0 842)" d="M80.064 734.02L81.50401 734.02L81.50401 734.02L81.50401 734.5L81.50401 734.5L80.064 734.5z" stroke="none" fill="#000000" fill-rule="evenodd" /><path id="302" transform="matrix(1 0 0 -1 0 842)" d="M81.504 734.98L297.794 734.98L297.794 734.98L297.794 735.46L297.794 735.46L81.504 735.46z" stroke="none" fill="#000000" fill-rule="evenodd" /><path id="303" transform="matrix(1 0 0 -1 0 842)" d="M81.504 734.02L297.794 734.02L297.794 734.02L297.794 734.5L297.794 734.5L81.504 734.5z" stroke="none" fill="#000000" fill-rule="evenodd" /><path id="304" transform="matrix(1 0 0 -1 0 842)" d="M297.79 734.98L299.23 734.98L299.23 734.98L299.23 735.46L299.23 735.46L297.79 735.46z" stroke="none" fill="#000000" fill-rule="evenodd" /><path id="305" transform="matrix(1 0 0 -1 0 842)" d="M297.79 734.02L299.23 734.02L299.23 734.02L299.23 734.5L299.23 734.5L297.79 734.5z" stroke="none" fill="#000000" fill-rule="evenodd" /><path id="306" transform="matrix(1 0 0 -1 0 842)" d="M299.23 734.98L515.52 734.98L515.52 734.98L515.52 735.46L515.52 735.46L299.23 735.46z" stroke="none" fill="#000000" fill-rule="evenodd" /><path id="307" transform="matrix(1 0 0 -1 0 842)" d="M299.23 734.02L515.52 734.02L515.52 734.02L515.52 734.5L515.52 734.5L299.23 734.5z" stroke="none" fill="#000000" fill-rule="evenodd" /><path id="308" transform="matrix(1 0 0 -1 0 842)" d="M515.52 734.98L516 734.98L516 734.98L516 735.46L516 735.46L515.52 735.46z" stroke="none" fill="#000000" fill-rule="evenodd" /><path id="309" transform="matrix(1 0 0 -1 0 842)" d="M516.48 734.98L516.96 734.98L516.96 734.98L516.96 735.46L516.96 735.46L516.48 735.46z" stroke="none" fill="#000000" fill-rule="evenodd" /><path id="310" transform="matrix(1 0 0 -1 0 842)" d="M515.52 734.02L516.96 734.02L516.96 734.02L516.96 734.5L516.96 734.5L515.52 734.5z" stroke="none" fill="#000000" fill-rule="evenodd" /><g clip-path="url(#33)"><g clip-path="url(#34)"></g></g><g clip-path="url(#35)"><g clip-path="url(#36)"></g></g><g clip-path="url(#37)"><g clip-path="url(#38)"></g><g clip-path="url(#39)"></g><g clip-path="url(#40)"></g></g><g clip-path="url(#41)"><g transform="matrix(0.120009 0 0 0.1200489 231.25 193.26)"><g transform="matrix(1 0 0 1 0 0)"><image x="0" y="0" xlink:href="img_01.png" width="1107" height="818" /></g></g></g><g clip-path="url(#42)"></g><g clip-path="url(#43)"><g clip-path="url(#44)"></g><g clip-path="url(#45)"></g><g clip-path="url(#46)"></g><g clip-path="url(#47)"></g><g clip-path="url(#48)"></g><g clip-path="url(#49)"></g><g clip-path="url(#50)"></g><g clip-path="url(#51)"></g><g clip-path="url(#52)"></g><g clip-path="url(#53)"></g><g clip-path="url(#54)"></g><g clip-path="url(#55)"></g><g clip-path="url(#56)"></g><g clip-path="url(#57)"></g><g clip-path="url(#58)"></g><g clip-path="url(#59)"></g><g clip-path="url(#60)"></g><g clip-path="url(#61)"></g><g clip-path="url(#62)"></g><g clip-path="url(#63)"></g><g clip-path="url(#64)"></g><g clip-path="url(#65)"></g><g clip-path="url(#66)"></g><g clip-path="url(#67)"></g><g clip-path="url(#68)"></g><g clip-path="url(#69)"></g><g clip-path="url(#70)"></g><g clip-path="url(#71)"></g><g clip-path="url(#72)"></g><g clip-path="url(#73)"></g><g clip-path="url(#74)"></g><g clip-path="url(#75)"></g><g clip-path="url(#76)"></g><g clip-path="url(#77)"></g><g clip-path="url(#78)"></g><g clip-path="url(#79)"></g><g clip-path="url(#80)"></g><g clip-path="url(#81)"></g><g clip-path="url(#82)"></g><g clip-path="url(#83)"></g><g clip-path="url(#84)"></g><g clip-path="url(#85)"></g><g clip-path="url(#86)"></g><g clip-path="url(#87)"></g><g clip-path="url(#88)"></g><g clip-path="url(#89)"></g><g clip-path="url(#90)"></g><g clip-path="url(#91)"></g><g clip-path="url(#92)"></g><g clip-path="url(#93)"></g><g clip-path="url(#94)"></g><g clip-path="url(#95)"></g><g clip-path="url(#96)"></g><g clip-path="url(#97)"></g><g clip-path="url(#98)"></g><g clip-path="url(#99)"></g><g clip-path="url(#100)"></g><g clip-path="url(#101)"></g><g clip-path="url(#102)"></g><g clip-path="url(#103)"></g><g clip-path="url(#104)"></g><g clip-path="url(#105)"></g><g clip-path="url(#106)"></g></g><g clip-path="url(#107)"><g clip-path="url(#108)"></g></g><g clip-path="url(#109)"><g clip-path="url(#110)"></g><g clip-path="url(#111)"></g><g clip-path="url(#112)"></g><g clip-path="url(#113)"></g></g><g clip-path="url(#114)"><g clip-path="url(#115)"></g></g><g clip-path="url(#116)"></g><g clip-path="url(#117)"><g clip-path="url(#118)"></g><g clip-path="url(#119)"></g><g clip-path="url(#120)"></g><g clip-path="url(#121)"></g><g clip-path="url(#122)"></g><g clip-path="url(#123)"></g><g clip-path="url(#124)"></g><g clip-path="url(#125)"></g><g clip-path="url(#126)"></g><g clip-path="url(#127)"></g><g clip-path="url(#128)"></g><g clip-path="url(#129)"></g><g clip-path="url(#130)"></g><g clip-path="url(#131)"></g></g><path id="1136" transform="matrix(1 0 0 -1 0 842)" d="M78.264 180.26L78.984 180.26L78.984 180.26L78.984 182.54L78.984 182.54L78.264 182.54z" stroke="none" fill="#000000" fill-rule="evenodd" /><path id="1137" transform="matrix(1 0 0 -1 0 842)" d="M78.264 181.82L80.424 181.82L80.424 181.82L80.424 182.54L80.424 182.54L78.264 182.54z" stroke="none" fill="#000000" fill-rule="evenodd" /><path id="1138" transform="matrix(1 0 0 -1 0 842)" d="M79.704 180.26L80.424 180.26L80.424 180.26L80.424 181.1L80.424 181.1L79.704 181.1z" stroke="none" fill="#000000" fill-rule="evenodd" /><path id="1139" transform="matrix(1 0 0 -1 0 842)" d="M79.704 180.38L80.424 180.38L80.424 180.38L80.424 181.1L80.424 181.1L79.704 181.1z" stroke="none" fill="#000000" fill-rule="evenodd" /><path id="1140" transform="matrix(1 0 0 -1 0 842)" d="M80.424 181.82L515.164 181.82L515.164 181.82L515.164 182.54L515.164 182.54L80.424 182.54z" stroke="none" fill="#000000" fill-rule="evenodd" /><path id="1141" transform="matrix(1 0 0 -1 0 842)" d="M80.424 180.38L515.164 180.38L515.164 180.38L515.164 181.1L515.164 181.1L80.424 181.1z" stroke="none" fill="#000000" fill-rule="evenodd" /><path id="1142" transform="matrix(1 0 0 -1 0 842)" d="M516.6 180.26L517.32 180.26L517.32 180.26L517.32 182.54L517.32 182.54L516.6 182.54z" stroke="none" fill="#000000" fill-rule="evenodd" /><path id="1143" transform="matrix(1 0 0 -1 0 842)" d="M515.16 181.82L517.3199 181.82L517.3199 181.82L517.3199 182.54L517.3199 182.54L515.16 182.54z" stroke="none" fill="#000000" fill-rule="evenodd" /><path id="1144" transform="matrix(1 0 0 -1 0 842)" d="M515.16 180.26L515.8799 180.26L515.8799 180.26L515.8799 181.1L515.8799 181.1L515.16 181.1z" stroke="none" fill="#000000" fill-rule="evenodd" /><path id="1145" transform="matrix(1 0 0 -1 0 842)" d="M515.16 180.38L515.8799 180.38L515.8799 180.38L515.8799 181.1L515.8799 181.1L515.16 181.1z" stroke="none" fill="#000000" fill-rule="evenodd" /><path id="1146" transform="matrix(1 0 0 -1 0 842)" d="M79.704 90.384L80.424 90.384L80.424 90.384L80.424 180.264L80.424 180.264L79.704 180.264z" stroke="none" fill="#000000" fill-rule="evenodd" /><path id="1147" transform="matrix(1 0 0 -1 0 842)" d="M78.264 90.384L78.984 90.384L78.984 90.384L78.984 180.264L78.984 180.264L78.264 180.264z" stroke="none" fill="#000000" fill-rule="evenodd" /><path id="1148" transform="matrix(1 0 0 -1 0 842)" d="M78.264 88.2L78.984 88.2L78.984 88.2L78.984 90.384L78.984 90.384L78.264 90.384z" stroke="none" fill="#000000" fill-rule="evenodd" /><path id="1149" transform="matrix(1 0 0 -1 0 842)" d="M78.264 88.2L80.424 88.2L80.424 88.2L80.424 88.92003L80.424 88.92003L78.264 88.92003z" stroke="none" fill="#000000" fill-rule="evenodd" /><path id="1150" transform="matrix(1 0 0 -1 0 842)" d="M79.704 89.64L80.424 89.64L80.424 89.64L80.424 90.38402L80.424 90.38402L79.704 90.38402z" stroke="none" fill="#000000" fill-rule="evenodd" /><path id="1151" transform="matrix(1 0 0 -1 0 842)" d="M79.704 89.64L80.424 89.64L80.424 89.64L80.424 90.38402L80.424 90.38402L79.704 90.38402z" stroke="none" fill="#000000" fill-rule="evenodd" /><path id="1152" transform="matrix(1 0 0 -1 0 842)" d="M80.424 88.2L515.164 88.2L515.164 88.2L515.164 88.92003L515.164 88.92003L80.424 88.92003z" stroke="none" fill="#000000" fill-rule="evenodd" /><path id="1153" transform="matrix(1 0 0 -1 0 842)" d="M80.424 89.64L515.164 89.64L515.164 89.64L515.164 90.38402L515.164 90.38402L80.424 90.38402z" stroke="none" fill="#000000" fill-rule="evenodd" /><path id="1154" transform="matrix(1 0 0 -1 0 842)" d="M516.6 90.384L517.32 90.384L517.32 90.384L517.32 180.264L517.32 180.264L516.6 180.264z" stroke="none" fill="#000000" fill-rule="evenodd" /><path id="1155" transform="matrix(1 0 0 -1 0 842)" d="M515.16 90.384L515.8799 90.384L515.8799 90.384L515.8799 180.264L515.8799 180.264L515.16 180.264z" stroke="none" fill="#000000" fill-rule="evenodd" /><path id="1156" transform="matrix(1 0 0 -1 0 842)" d="M516.6 88.2L517.32 88.2L517.32 88.2L517.32 90.384L517.32 90.384L516.6 90.384z" stroke="none" fill="#000000" fill-rule="evenodd" /><path id="1157" transform="matrix(1 0 0 -1 0 842)" d="M515.16 88.2L517.3199 88.2L517.3199 88.2L517.3199 88.92003L517.3199 88.92003L515.16 88.92003z" stroke="none" fill="#000000" fill-rule="evenodd" /><path id="1158" transform="matrix(1 0 0 -1 0 842)" d="M515.16 89.64L515.8799 89.64L515.8799 89.64L515.8799 90.38402L515.8799 90.38402L515.16 90.38402z" stroke="none" fill="#000000" fill-rule="evenodd" /><path id="1159" transform="matrix(1 0 0 -1 0 842)" d="M515.16 89.64L515.8799 89.64L515.8799 89.64L515.8799 90.38402L515.8799 90.38402L515.16 90.38402z" stroke="none" fill="#000000" fill-rule="evenodd" /></g></g></svg>